/* XPM */
static char *_e54b815d00f4540fd427d4bf21f742fQZ1L0R0biqq6H0Ls[] = {
/* columns rows colors chars-per-pixel */
"50 49 256 2 ",
"   c #161717",
".  c #1B090A",
"X  c #271916",
"o  c #361D17",
"O  c #330E08",
"+  c #39231D",
"@  c #302215",
"#  c #2B2825",
"$  c #352A28",
"%  c #36332C",
"&  c #393634",
"*  c #262C30",
"=  c #2D1E20",
"-  c #471B15",
";  c #53160B",
":  c #6E1B0C",
">  c #482519",
",  c #512B17",
"<  c #6A261A",
"1  c #702F18",
"2  c #472C25",
"3  c #572C25",
"4  c #48342B",
"5  c #593429",
"6  c #453935",
"7  c #563B35",
"8  c #402D31",
"9  c #652D22",
"0  c #67382B",
"q  c #793728",
"w  c #613C34",
"e  c #75352B",
"r  c #3F423B",
"t  c #6D481F",
"y  c #49433D",
"u  c #54453B",
"i  c #56472F",
"p  c #6A4628",
"a  c #674537",
"s  c #7A4536",
"d  c #704F32",
"f  c #393E40",
"g  c #523E42",
"h  c #3D4344",
"j  c #4D4A45",
"k  c #4A4746",
"l  c #534B44",
"z  c #574B46",
"x  c #59534B",
"c  c #595855",
"v  c #4D5151",
"b  c #654946",
"n  c #64544C",
"m  c #685848",
"M  c #675B55",
"N  c #7A5857",
"B  c #745248",
"V  c #6C614B",
"C  c #77664A",
"Z  c #6B645C",
"A  c #6B6458",
"S  c #74645C",
"D  c #776859",
"F  c #7B7154",
"G  c #696865",
"H  c #756A63",
"J  c #7C6C64",
"K  c #776965",
"L  c #7A746B",
"P  c #797367",
"I  c #7C7874",
"U  c #6E7068",
"Y  c #5C6160",
"T  c #942B15",
"R  c #87351C",
"E  c #903116",
"W  c #A53B1B",
"Q  c #863628",
"!  c #903B2B",
"~  c #A63D25",
"^  c #874A3C",
"/  c #984738",
"(  c #96553A",
")  c #8F5328",
"_  c #A84826",
"`  c #A44D3D",
"'  c #B44F2F",
"]  c #99622D",
"[  c #9E6539",
"{  c #A5692B",
"}  c #A76D32",
"|  c #AD7237",
" . c #B67738",
".. c #BF6238",
"X. c #A9421F",
"o. c #C8582E",
"O. c #C75A36",
"+. c #CE5935",
"@. c #CC6338",
"#. c #D86839",
"$. c #DF703D",
"%. c #E46F3D",
"&. c #875B5B",
"*. c #8C5342",
"=. c #A65142",
"-. c #AB5544",
";. c #AA5A45",
":. c #B45947",
">. c #A74F41",
",. c #8A6C4D",
"<. c #866759",
"1. c #887658",
"2. c #987958",
"3. c #986649",
"4. c #AA6644",
"5. c #BC644A",
"6. c #AA794A",
"7. c #A87C59",
"8. c #B57351",
"9. c #8C5D62",
"0. c #846D67",
"q. c #9C686B",
"w. c #88776A",
"e. c #94796A",
"r. c #887B75",
"t. c #967B73",
"y. c #A36D72",
"u. c #A87578",
"i. c #B2756B",
"p. c #CB5C47",
"a. c #C3664E",
"s. c #D97647",
"d. c #D16F52",
"f. c #E37746",
"g. c #E46E54",
"h. c #E9735A",
"j. c #F5785D",
"k. c #E77247",
"l. c #EB7A62",
"z. c #F57D63",
"x. c #93855C",
"c. c #B28451",
"v. c #978667",
"b. c #898378",
"n. c #988579",
"m. c #8B806C",
"M. c #A98A6A",
"N. c #B48B68",
"B. c #AA986C",
"V. c #B4976C",
"C. c #A3897E",
"Z. c #A3897B",
"A. c #AA9778",
"S. c #B89873",
"D. c #BA8878",
"F. c #B7A678",
"G. c #AFA077",
"H. c #CE8753",
"J. c #E68B58",
"K. c #F48A54",
"L. c #CA9A6D",
"P. c #F48C74",
"I. c #EE896D",
"U. c #C7A57B",
"Y. c #CDAD7D",
"T. c #E8B379",
"R. c #A97D81",
"E. c #B47E82",
"W. c #7C868B",
"Q. c #8B8985",
"!. c #988D86",
"~. c #9C9485",
"^. c #9C9B97",
"/. c #A68C81",
"(. c #A98E83",
"). c #AC8587",
"_. c #B58487",
"`. c #AC9186",
"'. c #A79789",
"]. c #B2968B",
"[. c #B49B88",
"{. c #A99A94",
"}. c #B79C96",
"|. c #ACA38D",
" X c #B7A889",
".X c #ABA497",
"XX c #BAA498",
"oX c #BCB295",
"OX c #B6ACA4",
"+X c #BAB4A6",
"@X c #BEBDB3",
"#X c #C99792",
"$X c #F39D85",
"%X c #C9AA85",
"&X c #D6AE84",
"*X c #C6B586",
"=X c #DAB48B",
"-X c #D7B387",
";X c #C2A998",
":X c #C8BA98",
">X c #D8BA95",
",X c #D2A392",
"<X c #E5BA97",
"1X c #ECAF90",
"2X c #C6ABA3",
"3X c #C7B6AA",
"4X c #D0BAAC",
"5X c #F2B5A0",
"6X c #D5C599",
"7X c #EAC386",
"8X c #F7CA89",
"9X c #FDD28E",
"0X c #E8C39A",
"qX c #F4C999",
"wX c #FDD393",
"eX c #FFDA95",
"rX c #FCD79B",
"tX c #FFE39B",
"yX c #CEC3A5",
"uX c #D7C8AA",
"iX c #D8CBB6",
"pX c #DBD4BB",
"aX c #C5C2B3",
"sX c #E9CAAB",
"dX c #FDD6A5",
"fX c #E5CAB5",
"gX c #E6D5B9",
"hX c #F7DAB9",
"jX c #F5CDB1",
"kX c #FFE5A7",
"lX c #FDE7B6",
"zX c #FFF2AE",
"xX c #D9D6C5",
"cX c #D3CCC4",
"vX c #E5DAC5",
"bX c #F4DEC4",
"nX c #EFDBD2",
"mX c #ECE2CA",
"MX c #F4E5CB",
"NX c #FCECCC",
"BX c #F6E5C8",
"VX c #FFF4CC",
"CX c #E8E5D5",
"ZX c #FDEDD3",
"AX c #F6ECD7",
"SX c #FEF2D4",
"DX c #FEF5DB",
"FX c #FFFADC",
"GX c #FBF5D8",
"HX c #F6EDE3",
"JX c #FFFEEB",
"KX c #FBF7E5",
"LX c #FEFEF3",
"PX c #FFFFFB",
"IX c #E9EBEA",
"UX c #DFE0DE",
/* pixels */
"k.1 Z FXSXyX+X3Xt.(.`.`.`.`.(.D S hX*XS.i '. X:X<XM i.P.l.z.z.l.l.h.g.Q $ hXqX0XdXjXqX=Xu 6.%.#.#.@.",
"~ ' O Q.FXuXK t.K n.Z.N <.n.w.z V tX9XeXe.:X0XY.Y.,.-.+.p.g.p.' g.p.: o 1.U.U.V.N.U.=X-XF C s.@.' E ",
"t - 3 a B a X % x z l j l l l y Z XXV m d n u r.r.k 6 4 + 4 7 o o n G G c j $ y x y % i u x l d i d ",
"{ t 0 a.>.` Q n bXuX=XsXnXsX=XsXBXhXA.<.f.%.o Q.PXKXHXCXvXMXDX.Xc JXZXZXDXDX'.|.6XyXF.B.uX X2.H. . .",
"7 z 6 &.N b O n sX0XY.-X=X=X&X>X>X-XM.1.k.#.@.. ^.FXAXGXZXNXSXgXI ZXbXbXhXNX XZ *XG.F.F.F.x.6 d a d ",
"R.}.E.u.y.R.N j >XU.&X&X&X&X&XY.&X%XM.v.J.@.#.T c JXBXNXMXBXlXsXG KXhXbXBXhXBXt. XB.F.B.B.x.S }.{.`.",
"u._.y.q.u.q.9.z sXV.U.=X<X=X=XF.U.0XS.C f.#.o.T o @XGXVXVXVXGXuX& LXZXNXsX<X5X,XG.x.x.B.1.V m _.2Xu.",
"a b 8 % b N g * M a m m n m V V 0.v.D z ,.e > > 2 k U I m.b.~.Z & G K L g 7 4 $ # u % & % 4 @ 7 7 8 ",
":.:.^ 2 M.c.6.c.6.c.} } i F F.F.F.F.F.*X X6XD r.XX.X}.XX'./.(.'.(.(.k OXCXxXpXaX@X+XU * s 5.;.;.;.;.",
"/ / < a  .H.{ } {  .}  .t c B.F F F V C C F i j {./.r.0.J 0.H K N J & vXFXAXFXGXDXFXFXc B :.=.-.-.-.",
">./ 1 7 c.| } ] } } } [ t y ~.w.m.v.m.b.m.m.t.n.[.[.[.M.n & 7 e w 3 $ AXNXMXMXmXMXBXSXoXq a.:.;.-.-.",
">.>.! 7 =X| | } ]  .| | , n.lXdXrXdXqXdXkXkXdXqXqXrX0XqXV 7 d.:.a.! k JXGXVXNXSXSXBXSXw.^ :.-.=.` -.",
"e < < = 7.8.] ) t d ] ] @ D 0X-X>X=X=XU.%X%XU.S.M.V.-Xu . / Q q ^ < l xXiXuXuXuXiXmXgXy *.-.! ! Q q ",
"% 6 k c m B M 7 2 % 4 m m j v m ( 2 $ k z z z M x % # k J n x H P a % x A x u u % @ X y 6 2 $ X # $ ",
"1X5X$Xl.5XP.I.z.k., V.J.J.=XL.s.+.Q Q.HXcX4X}.4X3X0.& VXzXkXkXVXzXrXi V.c.L.Y.H. .5 m.=XU.S.2.M 1XfX",
"1Xl.g.g.h.I.h.l.I.Q N.k.@.J.$.#.' R t.;X`.}.3X(./.Z.n lXrX8X9X8X9X8XV | {  .c.{  .t |.0X&X&X1.XXz.l.",
"l.P.g.p.z.h.l.g.g./ V.k.#.s.H.@.$.: w.3X].C.(.`.].t.V rXwX9XwX9X8X7XV c.{ { { } ] t v.6X=XU.M 5X$Xl.",
"l.j.z.s.g.z.h.z.k.q M.J.#.$.L.#.%.E S ;X}.(.(./.).w.c zXeXeXwXtXwXeXF 8. .] ) d { d *X8X7X% J P.g.I.",
"q < > O O - - , - = 7.J.#.#.s.s.$.W K XXC./.(.Z.t.0.k 1.,.x.N.,.1.,.X , o + @ > p + x P M h j <.1 < ",
"cXY ~.|.n.w.P n.n.6 6.$.#.#.#.#.@._ r.nXXX]./.(.`.0.y P b.F # G Q.Q.!.Q.^..X'.c % s d e q 2 v aX@X2X",
"GX|.dXdXhXlXdXqXrXe.7.$.@.@.$.#.O._ r.XX].`././.[.m.1.6X*XY.x IXJXKXDXDXJXKXFXiX0 o.@.@.' ; xXKXDXSX",
"hXn.qX0X8XqXqXqXdXV.} f.$.o.$.#.#.E 0.;XZ./.t./.[.P P *XF.V.y CXSXMXZXSXZXZXDXxX5 ..X.X.' 0 mXSXNXZX",
"iXA v.U.U.F.M.M.M.l 3 _ 1 ; ; 1 : > % M z M z k D y # x.1.x.X n.gXpXiX|.r.P b..X@ : T : T . |.gXiXgX",
"v.V x A A D P S A k k j y j x c Y U A l 6 % G b.P L I b.b.~.~.n..XP & H G H U b.L G e.e.D A r.n.A w.",
"kXtXkXdXkXeXrXrX9X2.n.6X6X*XF.*XF.6XY.F.Y.u I AXgXgXvXiX4XiXiXfXgX;Xg CXAXCXMXvXpXvXgXiXpXpXiXiXA.kX",
"rXrX9X9X9X9X8X7X8X,.m.6XG.G.B.B.F.F.F.B.B.y k '.r.0.0.0.0.r.Q.t.r.w.w.n.{.~.!.w.A   f 1.3.( } q l lX",
"8X8X8X7X7X7X7XT.8X2.L gX*XG.B.x.F x.G.F.x.@ U }.'.).C.`.C.e.t.`.~.e.J 1.D 0.w.n = + 7.f.o.+.#.T V zX",
"A A V V m A m n b l & z D Z u & r i u % v Y G M G I M # y M z z A A n + # z u 6 & d < 2 m m M J k y ",
"}.2XOX}./.}.XX].).{.N c #XR.#X}.Z.y.B x KXKXHXHXGXGXKXL  XVXtXeXtXlXzXx.t.$XP.5X$XP.p.N LXDXLXnXn.OX",
"R.t.!.t.J S w.r.R.0.v G 2Xy.y.E.u.u.9.6 CXAXMXMXMXmXSXL A.wX7X8X8XT.T.x.&.g.O.~ _ ' p.x mXuX>Xz !.{.",
"0 5 o 3 e 9 3 3 3 3 O b #XR.u.R.E.y.y.M HXKXAXZXZXMXZXS 7 3.3.d Z {.'.b.e.t.n.n.n.t.6 3 ^ ^ s 0 s s ",
"E W ; < Q T ~ T T T : 8 R.9.N &.9.9.b k xXvXgXiXiXvXMXN / >.-.; I JXMXDXDXDXSXAXmXDX~.Q X._ X._ E E ",
"2 X M B *.*.O K t.).^.Q.K K Q.!.I $ L ~.+X3Xn.~..X{.{.& y w.Z.x c +X+X.Xn.I b.h v ^.Q.6 X 4 D S M n ",
"}.& {.jXl.j.s UXKXPXKXDXAXGXKXPXAX^.bXhX>XsX>XsXgX%XjX.XpXpXyXyXoXgX6X XyX~.I cXCXHXCXKX~.^.4XXXXXXX",
"].M 6 $Xl.g.^ IXHXmXmXmXCXAXnXMXvXb.+XA. XXXA.XXXX(.|.M +XyXG.yXG.yXoXoXyX XI AXGXKXCXAXL !.2X].`.Z.",
"0.n.# a P.K.^ IXDXMXMXKXFXDXAXBXAX~.%XN.3.1.I b.!.{..Xk oX:X6XiXoXoX:X6X1.A ^.AXCXGXAXFX'.t.}.`.C.D ",
"$ # &   0 =.3 Z .X3XoXOXn.Q.+X.XOXM <.n.2.0.H {.!.Z r.G Q.L A b.m.I F u X c ^.Y G Q.P D M f H M 6 & ",
"| 1 L kX7X6XF.x OX.X!.OX3X{.!.~.4XcXI r.xXiX% n.=XV. XM.2.( W 9 c uX:X XyXuXm.Q.cXcX+X~.OXcX,.7.|  .",
"i 5 u 6XY.&XV.A vX3XC.XXiXXXC.;XcX2X0.!.SXNX[.@ H.J.T.J.k.$.K.X.V kX9XtX9XtXx.U LXZXDXFXJXpXm ] ) d ",
"[ 7.} 4.4.6.1 # }.).)./.n./.(.(.(.t.n r.ZXhXBXe.x J.+.#.@.o.' X.n lX8X9X8X9X8Xm vXZXMXbXVXXX4 2.,.6.",
"%.J.f.+.+.+.o.b 3X0.!.}.].].].t./.}.e.!.JXNXjX,Xu H.%.k.#.#.@.W & FXrXrXrX8XrXL.cXhXBXBXjX(.3.K.T.k.",
"_ _ R ~ ' ' R k Q.l M K S S N n M r.z k 3X[.A.i.7 4 / R R ! _ < r |.U.F.2.,.,.C L ].e.u.D.w X _ / R ",
"~.~.M X s ( *.*.^ s e e o v .X.X+X3X4X4X3X+XA 2 ^ s *.^ s s ^ s ^ e 7 $ - - - - - 0 0 o k !.w.I r.r.",
"(.(.K a d.:.:.-.:.a.:.a.< ^.JXZXDXMXCXnXBXKX+Xs a.:.` ..:.` ` >./ / - - :.:.:.=.-.-.d.=.r.XX].}.2XXX",
"t.0.z 4 :.;.=.>.=.=.>.>.< # I Z M Z Z G K K M k <.<.0.7 $ 8 4 2 > > . ^ / =.=.=.=.;.5.^ r.2X].`.Z.n.",
"C.n.0.2 d.>.-.*.>.-.>.>.- K #XR.y.R.R.R.}.R.R.E._.R.R.u.g * 5.:.-.-.> / :.-.>.;.>.>.a.s r.].}.`./.`.",
"n.0.M 4 d.a.:.>.e ! :.:.; G #XE.E.y.q.q.u.E.q.9.9.q.y.b X =.p.! :.>./ 9 ( a.d.a.d.5.d.s !.[.n.t.w.t.",
"# & # X b e 5 5 8 2 w 3 o v M g b r.9.M c b z k 6 X X   = 3 $ + 7 2 2 % k 8 X o 4 2 w 6 Y H M c c & ",
") 6 UXvXvX~.U '.3X+XR.Q.t.{.+X7 I KXMXMXvXgXbXfXfXe.!.#Xa.i.H.;XD.5.a.b h L n.].`.XX X%Xn C H.s.d. ."
};
