/* XPM */
static char *result[] = {
/* columns rows colors chars-per-pixel */
"10 10 4 1 ",
"  c #916855",
". c #906755",
"X c #906754",
"o c white",
/* pixels */
"          ",
"          ",
"          ",
"          ",
"          ",
"..........",
"XXXXXXXXXX",
"XXXXXXXXXX",
"XXXXXXXXXX",
"XXXXXXXXXX"
};
